<?xml version="1.0" encoding="UTF-8"?>
<svg id="Layer_2" data-name="Layer 2" xmlns="http://www.w3.org/2000/svg" viewBox="0 0 425.04 424.96">
  <g id="Layer_1-2" data-name="Layer 1">
    <g>
      <path d="m212.77,0C278.24,0,343.71,0,409.19.01c11.86,0,15.81,4.01,15.81,15.95,0,5.83.02,11.66,0,17.49-.02,12.67-3.78,16.47-16.3,16.47-60.64,0-121.28,0-181.92,0-70.14,0-140.27,0-210.41.01-12.48,0-16.31-3.87-16.32-16.47,0-6.16-.02-12.33,0-18.49C.1,4.42,4.47,0,14.86,0,80.83,0,146.8,0,212.77,0Z"/>
      <path d="m212.48,375.02c65.81,0,131.61,0,197.42,0,10.79,0,15.06,4.26,15.11,15.16.03,6.83.06,13.66-.01,20.49-.1,9.85-4.54,14.18-14.5,14.28-4,.04-8,0-11.99,0-127.45,0-254.89.01-382.34-.07-3.4,0-7.09-.46-10.11-1.85-4-1.85-5.91-5.77-5.95-10.26-.08-8.33-.19-16.66.02-24.99.2-8.21,5.03-12.71,13.45-12.74,16.33-.06,32.65-.01,48.98-.01,49.98,0,99.96,0,149.94,0Z"/>
      <path d="m225.28,118.87v188.57c5.5-5.66,10.06-10.42,14.7-15.11,4.68-4.74,9.28-9.58,14.19-14.08,5.01-4.59,12.54-4.27,17.17.34,4.66,4.63,5.2,12.35.47,17.16-16.82,17.11-33.79,34.07-50.89,50.91-4.71,4.64-12.04,4.67-16.75.03-17.1-16.83-34.07-33.79-50.89-50.9-4.75-4.83-4.23-12.44.44-17.15,4.75-4.79,12.4-5.02,17.52-.08,8.16,7.86,16.06,15.98,24.09,23.98,1.26,1.25,2.57,2.45,4.41,4.2V117.9c-9.61,9.64-18.58,18.53-27.42,27.55-4.19,4.28-9.08,5.6-14.57,3.58-7.98-2.94-10.54-13.61-4.4-19.9,16.76-17.17,33.78-34.08,50.87-50.92,4.67-4.6,12.06-4.51,16.75.12,16.96,16.73,33.82,33.57,50.55,50.54,4.97,5.04,4.59,12.72-.26,17.51-4.8,4.74-12.42,4.88-17.52-.06-8.26-8-16.33-16.19-24.4-24.38-1.13-1.15-1.82-2.74-2.71-4.13-.45.35-.9.71-1.36,1.06Z"/>
    </g>
  </g>
</svg>