<?xml version="1.0" encoding="UTF-8"?>
<svg id="Layer_2" data-name="Layer 2" xmlns="http://www.w3.org/2000/svg" viewBox="0 0 424.96 425.04">
  <g id="Layer_1-2" data-name="Layer 1">
    <g>
      <path d="m0,212.27C0,146.8,0,81.33.01,15.85.01,4,4.02.05,15.96.05c5.83,0,11.66-.02,17.49,0,12.67.02,16.47,3.78,16.47,16.3,0,60.64,0,121.28,0,181.92,0,70.14,0,140.27.01,210.41,0,12.48-3.87,16.31-16.47,16.32-6.16,0-12.33.02-18.49,0C4.42,424.94,0,420.57,0,410.18,0,344.21,0,278.24,0,212.27Z"/>
      <path d="m375.02,212.56c0-65.81,0-131.61,0-197.42,0-10.79,4.26-15.06,15.16-15.11,6.83-.03,13.66-.06,20.49.01,9.85.1,14.18,4.54,14.28,14.5.04,4,0,8,0,11.99,0,127.45.01,254.89-.07,382.34,0,3.4-.46,7.09-1.85,10.11-1.85,4-5.77,5.91-10.26,5.95-8.33.08-16.66.19-24.99-.02-8.21-.2-12.71-5.03-12.74-13.45-.06-16.33-.01-32.65-.01-48.98,0-49.98,0-99.96,0-149.94Z"/>
      <path d="m118.87,199.77h188.57c-5.66-5.5-10.42-10.06-15.11-14.7-4.74-4.68-9.58-9.28-14.08-14.19-4.59-5.01-4.27-12.54.34-17.17,4.63-4.66,12.35-5.2,17.16-.47,17.11,16.82,34.07,33.79,50.91,50.89,4.64,4.71,4.67,12.04.03,16.75-16.83,17.1-33.79,34.07-50.9,50.89-4.83,4.75-12.44,4.23-17.15-.44-4.79-4.75-5.02-12.4-.08-17.52,7.86-8.16,15.98-16.06,23.98-24.09,1.25-1.26,2.45-2.57,4.2-4.41H117.9c9.64,9.61,18.53,18.58,27.55,27.42,4.28,4.19,5.6,9.08,3.58,14.57-2.94,7.98-13.61,10.54-19.9,4.4-17.17-16.76-34.08-33.78-50.92-50.87-4.6-4.67-4.51-12.06.12-16.75,16.73-16.96,33.57-33.82,50.54-50.55,5.04-4.97,12.72-4.59,17.51.26,4.74,4.8,4.88,12.42-.06,17.52-8,8.26-16.19,16.33-24.38,24.4-1.15,1.13-2.74,1.82-4.13,2.71.35.45.71.9,1.06,1.36Z"/>
    </g>
  </g>
</svg>